<svg xmlns="http://www.w3.org/2000/svg" viewBox="0 0 128 128"><defs><style>.cls-1{fill:#231f20;}.cls-2{fill:none;}</style></defs><g id="Layer_2" data-name="Layer 2"><g id="Layer_1-2" data-name="Layer 1"><path class="cls-1" d="M64,24a48,48,0,1,0,48,48A48,48,0,0,0,64,24Zm0,93a45,45,0,1,1,45-45A45.05,45.05,0,0,1,64,117Z"/><polygon class="cls-1" points="65.5 40 62.5 40 62.5 72.62 79.14 89.27 81.27 87.14 65.5 71.38 65.5 40"/><path class="cls-1" d="M51,19H77v3.45c1,.27,2,.56,3,.89V16H48v7.34c1-.33,2-.62,3-.89Z"/><rect class="cls-2" width="128" height="128"/></g></g></svg>