<svg xmlns="http://www.w3.org/2000/svg" viewBox="0 0 128 128"><defs><style>.cls-1{fill:#231f20;}.cls-2{fill:none;}</style></defs><g id="Layer_2" data-name="Layer 2"><g id="Layer_1-2" data-name="Layer 1"><path class="cls-1" d="M112,64h0V62.5h0A48,48,0,0,0,16,62.5h0v3h0a48,48,0,0,0,95.92,0h0ZM94.7,62.5a69.58,69.58,0,0,0-3.56-21H103a44.74,44.74,0,0,1,6,21ZM83.2,31.68a47.87,47.87,0,0,1,3.6,6.82H75.62C74.14,30.28,72,23.74,69.4,19.88,74.54,21.55,79.31,25.59,83.2,31.68Zm-12.39-.8c.67,2.34,1.26,4.9,1.76,7.62H55.43c.5-2.72,1.09-5.28,1.76-7.62C59.68,22.16,62.63,19,64,19S68.32,22.16,70.81,30.88ZM53.3,62.5a144.83,144.83,0,0,1,1.62-21H73.08a144.83,144.83,0,0,1,1.62,21Zm21.4,3a144.83,144.83,0,0,1-1.62,21H54.92a144.83,144.83,0,0,1-1.62-21ZM58.6,19.88C56,23.74,53.86,30.28,52.38,38.5H41.2a47.87,47.87,0,0,1,3.6-6.82C48.69,25.59,53.46,21.55,58.6,19.88ZM51.89,41.5a148.75,148.75,0,0,0-1.59,21h-14A65.86,65.86,0,0,1,40,41.5Zm-1.59,24a148.75,148.75,0,0,0,1.59,21H40a65.86,65.86,0,0,1-3.73-21Zm2.08,24c1.48,8.22,3.64,14.76,6.22,18.62-5.14-1.67-9.91-5.71-13.8-11.8a47.87,47.87,0,0,1-3.6-6.82Zm4.81,7.62c-.67-2.34-1.26-4.9-1.76-7.62H72.57c-.5,2.72-1.09,5.28-1.76,7.62C68.32,105.84,65.37,109,64,109S59.68,105.84,57.19,97.12Zm12.21,11c2.58-3.86,4.74-10.4,6.22-18.62H86.8a47.87,47.87,0,0,1-3.6,6.82C79.31,102.41,74.54,106.45,69.4,108.12ZM76.11,86.5a148.75,148.75,0,0,0,1.59-21h14A65.86,65.86,0,0,1,88,86.5Zm1.59-24a148.75,148.75,0,0,0-1.59-21H88a65.86,65.86,0,0,1,3.73,21Zm23.35-24H90c-3-7.34-7.14-13.33-12.11-17.28A45.17,45.17,0,0,1,101.05,38.5Zm-51-17.28c-5,4-9.16,9.94-12.11,17.28H27A45.17,45.17,0,0,1,50.08,21.22Zm-25,20.28H36.86a69.58,69.58,0,0,0-3.56,21H19A44.74,44.74,0,0,1,25.05,41.5Zm8.25,24a69.58,69.58,0,0,0,3.56,21H25.05a44.74,44.74,0,0,1-6-21ZM27,89.5H38c3,7.34,7.14,13.33,12.11,17.28A45.17,45.17,0,0,1,27,89.5Zm51,17.28c5-4,9.16-9.94,12.11-17.28h11A45.17,45.17,0,0,1,77.92,106.78ZM103,86.5H91.14a69.58,69.58,0,0,0,3.56-21H109A44.74,44.74,0,0,1,103,86.5Z"/><rect class="cls-2" width="128" height="128"/></g></g></svg>