<svg xmlns="http://www.w3.org/2000/svg" viewBox="0 0 128 128"><defs><style>.cls-1{fill:#231f20;}.cls-2{fill:none;}</style></defs><g id="Layer_2" data-name="Layer 2"><g id="Layer_1-2" data-name="Layer 1"><path class="cls-1" d="M56,98.22A64,64,0,0,1,19.28,86.76,37.5,37.5,0,0,1,80.45,66.05c.83.71,1.62,1.46,2.37,2.24a21.75,21.75,0,0,1,2.59-1.64,40.35,40.35,0,0,0-21.3-11.86,20.26,20.26,0,1,0-16.25,0A40.53,40.53,0,0,0,16,88.09,67.57,67.57,0,0,0,75.83,98.25c-.36-.91-.69-1.86-1-2.83A64.43,64.43,0,0,1,56,98.22Zm-17.26-62A17.25,17.25,0,1,1,56,53.5,17.27,17.27,0,0,1,38.73,36.25Z"/><path class="cls-1" d="M96,72A16,16,0,0,0,80,88c0,16,16,24,16,24s16-8,16-24A16,16,0,0,0,96,72Zm0,36.54C92.42,106.3,83,99.33,83,88a13,13,0,0,1,26,0C109,99.33,99.55,106.3,96,108.54Z"/><circle class="cls-1" cx="95.99" cy="88" r="5.09" transform="translate(-34.11 93.65) rotate(-45)"/><rect class="cls-2" width="128" height="128"/></g></g></svg>