<?xml version="1.0" encoding="UTF-8" standalone="no"?><!DOCTYPE svg PUBLIC "-//W3C//DTD SVG 1.1//EN" "http://www.w3.org/Graphics/SVG/1.1/DTD/svg11.dtd"><svg width="100%" height="100%" viewBox="0 0 4500 4500" version="1.1" xmlns="http://www.w3.org/2000/svg" xmlns:xlink="http://www.w3.org/1999/xlink" xml:space="preserve" xmlns:serif="http://www.serif.com/" style="fill-rule:evenodd;clip-rule:evenodd;stroke-linejoin:round;stroke-miterlimit:2;"><g><path d="M2256.25,1389.58c-510.973,0 -925,386.026 -925,860.417c0,474.391 414.027,860.417 925,860.417c510.973,0 925,-386.026 925,-860.417c0,-474.391 -414.027,-860.417 -925,-860.417Zm0,22.917c497.873,0 902.083,375.271 902.083,837.5c0,462.229 -404.21,837.5 -902.083,837.5c-497.873,0 -902.083,-375.271 -902.083,-837.5c0,-462.229 404.21,-837.5 902.083,-837.5Z"/><path d="M1475,962.5c-510.973,0 -925,386.026 -925,860.417c0,474.39 414.027,860.416 925,860.416c510.973,0 925,-386.026 925,-860.416c0,-474.391 -414.027,-860.417 -925,-860.417Zm0,22.917c497.873,0 902.083,375.271 902.083,837.5c0,462.228 -404.21,837.5 -902.083,837.5c-497.873,0 -902.083,-375.272 -902.083,-837.5c0,-462.229 404.21,-837.5 902.083,-837.5Z"/><path d="M1466.67,1804.17c-510.973,0 -925,386.026 -925,860.416c0,474.391 414.027,860.417 925,860.417c510.973,0 925,-386.026 925,-860.417c0,-474.39 -414.027,-860.416 -925,-860.416Zm0,22.916c497.873,0 902.083,375.272 902.083,837.5c0,462.229 -404.21,837.5 -902.083,837.5c-497.874,0 -902.084,-375.271 -902.084,-837.5c0,-462.228 404.21,-837.5 902.084,-837.5Z"/><path d="M2256.25,2229.17c-510.973,0 -925,386.026 -925,860.416c0,474.391 414.027,860.417 925,860.417c510.973,0 925,-386.026 925,-860.417c0,-474.39 -414.027,-860.416 -925,-860.416Zm0,22.916c497.873,0 902.083,375.272 902.083,837.5c0,462.229 -404.21,837.5 -902.083,837.5c-497.873,0 -902.083,-375.271 -902.083,-837.5c0,-462.228 404.21,-837.5 902.083,-837.5Z"/><path d="M3033.33,1812.5c-510.973,0 -925,386.026 -925,860.417c0,474.39 414.027,860.416 925,860.416c510.973,0 925,-386.026 925,-860.416c0,-474.391 -414.027,-860.417 -925,-860.417Zm0,22.917c497.874,0 902.084,375.271 902.084,837.5c0,462.228 -404.21,837.5 -902.084,837.5c-497.873,0 -902.083,-375.272 -902.083,-837.5c0,-462.229 404.21,-837.5 902.083,-837.5Z"/><path d="M3033.33,968.75c-510.973,0 -925,386.026 -925,860.417c0,474.39 414.027,860.416 925,860.416c510.973,0 925,-386.026 925,-860.416c0,-474.391 -414.027,-860.417 -925,-860.417Zm0,22.917c497.874,0 902.084,375.271 902.084,837.5c0,462.228 -404.21,837.5 -902.084,837.5c-497.873,0 -902.083,-375.272 -902.083,-837.5c0,-462.229 404.21,-837.5 902.083,-837.5Z"/><path d="M2256.25,550c-510.973,0 -925,386.026 -925,860.417c0,474.39 414.027,860.416 925,860.416c510.973,0 925,-386.026 925,-860.416c0,-474.391 -414.027,-860.417 -925,-860.417Zm0,22.917c497.873,0 902.083,375.271 902.083,837.5c0,462.228 -404.21,837.5 -902.083,837.5c-497.873,0 -902.083,-375.272 -902.083,-837.5c0,-462.229 404.21,-837.5 902.083,-837.5Z"/></g></svg>